<svg xmlns="http://www.w3.org/2000/svg" viewBox="0 0 64 64" id="VideoConference"><path d="M54 49H10a5.006 5.006 0 01-5-5V10a5.006 5.006 0 015-5H54a5.006 5.006 0 015 5V44A5.006 5.006 0 0154 49zM10 7a3 3 0 00-3 3V44a3 3 0 003 3H54a3 3 0 003-3V10a3 3 0 00-3-3zM42 53H22a3 3 0 000 6H42a3 3 0 000-6z" fill="#eaeaea" class="color000000 svgShape"></path><path d="M58,41H6a1,1,0,0,0-1,1v2a5.006,5.006,0,0,0,5,5H54a5.006,5.006,0,0,0,5-5V42A1,1,0,0,0,58,41Z" fill="#eaeaea" class="color000000 svgShape"></path><path d="M38.949 47.684A1 1 0 0038 47H26a1 1 0 00-.949.684l-2 6A1 1 0 0024 55H40a1 1 0 00.949-1.316zM32 43a1 1 0 01-1-1V7a1 1 0 012 0V42A1 1 0 0132 43z" fill="#eaeaea" class="color000000 svgShape"></path><path d="M58 25H6a1 1 0 010-2H58a1 1 0 010 2zM47.793 14.855a4 4 0 10-5.586 0A5 5 0 0040 19v1a1 1 0 001 1h8a1 1 0 001-1V19A5 5 0 0047.793 14.855zM21.793 14.855a4 4 0 10-5.586 0A5 5 0 0014 19v1a1 1 0 001 1h8a1 1 0 001-1V19A5 5 0 0021.793 14.855zM47.793 32.855a4 4 0 10-5.586 0A5 5 0 0040 37v1a1 1 0 001 1h8a1 1 0 001-1V37A5 5 0 0047.793 32.855zM21.793 32.855a4 4 0 10-5.586 0A5 5 0 0014 37v1a1 1 0 001 1h8a1 1 0 001-1V37A5 5 0 0021.793 32.855z" fill="#eaeaea" class="color000000 svgShape"></path></svg>