<svg xmlns="http://www.w3.org/2000/svg" viewBox="0 0 32 32" id="link"><g fill="#f3f3f3" class="color000000 svgShape"><path d="M27.313 4.687a6 6 0 00-8.485 0L13.879 9.636a1 1 0 101.414 1.414L20.242 6.1A4 4 0 1125.9 11.757l-4.949 4.95a1 1 0 101.414 1.414l4.949-4.95a6 6 0 000-8.484zM16.707 20.95L11.758 25.9A4 4 0 116.1 20.243l4.949-4.95a1 1 0 10-1.414-1.414l-4.949 4.95a6 6 0 108.485 8.484l4.949-4.949a1 1 0 10-1.414-1.414z" fill="#f3f3f3" class="color000000 svgShape"></path><path d="M11.051,20.95a1,1,0,0,0,1.414,0l8.484-8.486a1,1,0,0,0-1.414-1.414l-8.484,8.486A1,1,0,0,0,11.051,20.95Z" fill="#f3f3f3" class="color000000 svgShape"></path></g></svg>