<svg xmlns="http://www.w3.org/2000/svg" viewBox="0 0 48 48" id="Online"><path  d="M44,40.544H42.352a3.467,3.467,0,0,0,.675-2.048v-8.7a6.041,6.041,0,0,0-5.065-5.978l-2.322-.387A1.724,1.724,0,0,1,34.2,21.755l-.028-1.719a3.826,3.826,0,0,0,2.114-3.408V11.7a4.97,4.97,0,0,0-4.264-4.9l-8-1.117a.5.5,0,0,0-.5.74l1.449,2.57H23.472a.5.5,0,0,0-.415.78l2.7,4.008v2.848a3.825,3.825,0,0,0,2.065,3.382L27.8,21.755a1.734,1.734,0,0,1-1.443,1.675l-2.316.39a6.04,6.04,0,0,0-4.067,2.635H9a.5.5,0,0,0-.486.618l3.271,13.471H4a.5.5,0,0,0,0,1h8.028l.1.4a.5.5,0,0,0,.486.381H39.166a.5.5,0,0,0,.42-.228.457.457,0,0,0,.036-.108,3.464,3.464,0,0,0,1.591-.443H44a.5.5,0,0,0,0-1ZM26.761,16.628v-3a.34.34,0,0,0-.009-.046.538.538,0,0,0-.058-.191c-.008-.014-.009-.03-.018-.043L24.412,9.992h1.114l.067.118a.5.5,0,0,0,.871-.491L24.881,6.812l7,.977a3.966,3.966,0,0,1,3.4,3.911v4.928a2.84,2.84,0,0,1-2.837,2.836H29.6A2.839,2.839,0,0,1,26.761,16.628ZM24.2,24.807l2.32-.39A2.737,2.737,0,0,0,28.8,21.771l.02-1.386a3.9,3.9,0,0,0,.777.079h2.851a3.81,3.81,0,0,0,.729-.074l.022,1.382a2.723,2.723,0,0,0,2.276,2.643L37.8,24.8a5.045,5.045,0,0,1,4.229,4.992v8.7a2.5,2.5,0,0,1-2.5,2.5h-.184l-.355-.79a1.5,1.5,0,0,0-1.368-.886H29.405l-.247-1.158a85.969,85.969,0,0,1,9.867-1.169.5.5,0,0,0,.475-.524.506.506,0,0,0-.525-.475c-.011,0-.244.013-.638.04V31.059a.5.5,0,1,0-1,0v5.048c-1.88.15-5.125.47-8.387,1.077l-2.2-10.333a.5.5,0,0,0-.489-.4H21.229A5.036,5.036,0,0,1,24.2,24.807ZM13,41.323,9.636,27.455h16.22l2.655,12.469a.5.5,0,0,0,.489.4h8.62a.5.5,0,0,1,.456.3l.318.708ZM24.785,29.33a.5.5,0,0,1-.5.5H21.694a.5.5,0,0,1,0-1h2.591A.5.5,0,0,1,24.785,29.33ZM8.118,21.6c1.74.092,4.646.067,5.509.057A18.537,18.537,0,0,0,17,25a.51.51,0,0,0,.269.078.5.5,0,0,0,.489-.4c.011-.047.237-1.134.592-3.317a4.276,4.276,0,0,0,2.729-.749,2.83,2.83,0,0,0,1.04-2.1c.136-1.8.375-7.756-2.3-8.91-2.087-.9-12.02-1.053-13.65.36C4.5,11.41,4.016,13.711,4.39,18.453,4.534,20.279,5.962,21.484,8.118,21.6ZM6.82,10.72c1.094-.949,10.514-1.1,12.6-.2,1.542.665,1.967,4.455,1.7,7.916a1.85,1.85,0,0,1-.663,1.388,3.691,3.691,0,0,1-2.456.5.5.5,0,0,0-.567.416c-.216,1.348-.391,2.334-.506,2.951a23.608,23.608,0,0,1-2.673-2.853.5.5,0,0,0-.393-.191h-.008c-.037,0-3.7.052-5.687-.053-1.664-.088-2.678-.9-2.783-2.225C4.993,13.377,5.643,11.74,6.82,10.72Zm2.91,8.97a.5.5,0,0,0,.5-.5v-1.4a1.933,1.933,0,0,1,1.445-1.866L12,15.839a1.877,1.877,0,0,0,.934.255h.589a1.876,1.876,0,0,0,.923-.249l.336.079A1.934,1.934,0,0,1,16.24,17.79v1.4a.5.5,0,0,0,1,0v-1.4a2.929,2.929,0,0,0-2.01-2.765,1.885,1.885,0,0,0,.2-.836V12.746a1.907,1.907,0,0,0-1.906-1.905h-.589a1.907,1.907,0,0,0-1.906,1.905v1.443a1.9,1.9,0,0,0,.2.835,2.926,2.926,0,0,0-2,2.766v1.4A.5.5,0,0,0,9.73,19.69Zm2.3-6.944a.907.907,0,0,1,.906-.905h.589a.907.907,0,0,1,.906.905v1.443a.907.907,0,0,1-.906.9h-.589a.907.907,0,0,1-.906-.9Z" fill="#f3f3f3" class="color000000 svgShape"></path></svg>