<svg xmlns="http://www.w3.org/2000/svg" viewBox="0 0 64 64" id="VideoCamera"><path d="M40.54 52.14H11.25a5.51 5.51 0 0 1-5.5-5.5V17.36a5.51 5.51 0 0 1 5.5-5.5h29.29a5.51 5.51 0 0 1 5.5 5.5v29.28a5.51 5.51 0 0 1-5.5 5.5ZM11.25 14.86a2.5 2.5 0 0 0-2.5 2.5v29.28a2.5 2.5 0 0 0 2.5 2.5h29.29a2.5 2.5 0 0 0 2.5-2.5V17.36a2.5 2.5 0 0 0-2.5-2.5Z" fill="#f3f3f3" class="color000000 svgShape"></path><path d="M56.75 45.25a1.44 1.44 0 0 1-.67-.16L43.87 39a1.49 1.49 0 0 1-.87-1.35V26.36a1.49 1.49 0 0 1 .87-1.36l12.21-6.11a1.49 1.49 0 0 1 2.17 1.34v23.5a1.52 1.52 0 0 1-.71 1.27 1.6 1.6 0 0 1-.79.25ZM46 36.72l9.21 4.6V22.68L46 27.29Z" fill="#f3f3f3" class="color000000 svgShape"></path></svg>