<svg xmlns="http://www.w3.org/2000/svg" viewBox="0 0 64 64" id="Conference"><path d="M56.71484,4H7.28467A3.07642,3.07642,0,0,0,4.21143,7.07324V43.77686A3.07642,3.07642,0,0,0,7.28467,46.8501H20.88379v4.522H12.91064a2.12723,2.12723,0,0,0-2.125,2.125V57.875A2.12722,2.12722,0,0,0,12.91064,60H50.96875a2.12721,2.12721,0,0,0,2.125-2.125V53.49707a2.12722,2.12722,0,0,0-2.125-2.125H43.083v-4.522H56.71484a3.07674,3.07674,0,0,0,3.07325-3.07324V7.07324A3.07674,3.07674,0,0,0,56.71484,4Zm1.07325,3.07324V24.35742H54.62524a6.0458,6.0458,0,0,0-12.09033,0H41.02246a1.24027,1.24027,0,0,1-1.22168-1.25635L39.78418,6H56.71484A1.07445,1.07445,0,0,1,57.78809,7.07324ZM44.53949,24.35742a4.04259,4.04259,0,0,1,8.08117.00012ZM7.28467,6H37.78418l.0166,17.102a3.24243,3.24243,0,0,0,3.22168,3.25537H57.78809v12.897H25.53882c-1.22761-8.0858-12.7527-8.07454-13.97607.00015l-5.35132-.00015V7.07324A1.07444,1.07444,0,0,1,7.28467,6ZM23.51086,39.25439H13.58722A5.05968,5.05968,0,0,1,23.51086,39.25439ZM51.09375,53.49707V57.875a.12492.12492,0,0,1-.125.125c-.12568-.124-38.21094.23814-38.18278-.12468l-.00033-4.37825a.12524.12524,0,0,1,.125-.125H50.96875A.12492.12492,0,0,1,51.09375,53.49707ZM41.083,51.37207H22.88379v-4.522H41.083Zm15.63183-6.522c-14.5078-.00011-34.92335,0-49.43018,0a1.07444,1.07444,0,0,1-1.07323-1.07324V41.25439H57.78809v2.52247A1.07445,1.07445,0,0,1,56.71484,44.8501Z" fill="#eaeaea" class="color000000 svgShape"></path><path d="M48.57715 16.61182a4.36664 4.36664 0 00-.0001-8.73292A4.36664 4.36664 0 0048.57715 16.61182zm0-6.73291a2.36661 2.36661 0 01-.00007 4.73291A2.36661 2.36661 0 0148.57715 9.87891zM18.54834 30.604c6.65514-.21127 6.65314-9.86129-.00011-10.07178C11.89365 20.74371 11.89475 30.39372 18.54834 30.604zm0-8.07177a3.03608 3.03608 0 01-.00009 6.07177A3.03608 3.03608 0 0118.54834 22.53223z" fill="#eaeaea" class="color000000 svgShape"></path></svg>